<svg aria-hidden="true" style="position: absolute; width: 0; height: 0; overflow: hidden;" version="1.1" xmlns="http://www.w3.org/2000/svg" xmlns:xlink="http://www.w3.org/1999/xlink">
<defs>
<symbol id="icon-plus-1" viewBox="0 0 28 32">
<path d="M0 17.888v-3.808q0-0.64 0.448-1.12t1.12-0.448h8.992v-8.992q0-0.64 0.48-1.12t1.12-0.448h3.808q0.64 0 1.088 0.448t0.48 1.12v8.992h8.992q0.64 0 1.12 0.448t0.448 1.12v3.808q0 0.672-0.448 1.12t-1.12 0.48h-8.992v9.024q0 0.64-0.48 1.088t-1.088 0.48h-3.808q-0.672 0-1.12-0.48t-0.48-1.088v-9.024h-8.992q-0.64 0-1.12-0.48t-0.448-1.12z"></path>
</symbol>
<symbol id="icon-check" viewBox="0 0 30 32">
<path d="M25.152 16.608v5.664q0 2.144-1.504 3.648t-3.648 1.504h-14.848q-2.144 0-3.648-1.504t-1.504-3.648v-14.848q0-2.112 1.504-3.616t3.648-1.536h14.848q1.12 0 2.080 0.448 0.288 0.128 0.32 0.416 0.064 0.32-0.16 0.512l-0.864 0.896q-0.192 0.16-0.416 0.16-0.032 0-0.16-0.032-0.416-0.096-0.8-0.096h-14.848q-1.184 0-2.016 0.832t-0.864 2.016v14.848q0 1.184 0.864 2.016t2.016 0.864h14.848q1.184 0 2.016-0.864t0.832-2.016v-4.512q0-0.256 0.16-0.416l1.152-1.12q0.192-0.192 0.416-0.192 0.096 0 0.224 0.064 0.352 0.128 0.352 0.512zM29.28 7.872l-14.56 14.528q-0.416 0.448-0.992 0.448t-1.024-0.448l-7.68-7.68q-0.448-0.416-0.448-0.992t0.448-1.024l1.952-1.984q0.448-0.416 1.024-0.416t1.024 0.416l4.704 4.704 11.552-11.552q0.416-0.416 0.992-0.416t1.024 0.416l1.984 1.952q0.416 0.448 0.416 1.024t-0.416 1.024z"></path>
</symbol>
<symbol id="icon-trash-empty" viewBox="0 0 25 32">
<path d="M9.152 13.152v10.272q0 0.256-0.16 0.416t-0.416 0.16h-1.152q-0.256 0-0.416-0.16t-0.16-0.416v-10.272q0-0.256 0.16-0.416t0.416-0.16h1.152q0.256 0 0.416 0.16t0.16 0.416zM13.728 13.152v10.272q0 0.256-0.16 0.416t-0.416 0.16h-1.152q-0.256 0-0.416-0.16t-0.16-0.416v-10.272q0-0.256 0.16-0.416t0.416-0.16h1.152q0.256 0 0.416 0.16t0.16 0.416zM18.272 13.152v10.272q0 0.256-0.16 0.416t-0.384 0.16h-1.152q-0.256 0-0.416-0.16t-0.16-0.416v-10.272q0-0.256 0.16-0.416t0.416-0.16h1.152q0.224 0 0.384 0.16t0.16 0.416zM20.576 26.080v-16.928h-16v16.928q0 0.384 0.128 0.704t0.256 0.48 0.192 0.16h14.848q0.064 0 0.192-0.16t0.256-0.48 0.128-0.704zM8.576 6.848h8l-0.864-2.080q-0.128-0.16-0.288-0.192h-5.664q-0.192 0.032-0.32 0.192zM25.152 7.424v1.152q0 0.256-0.16 0.416t-0.416 0.16h-1.728v16.928q0 1.472-0.832 2.56t-2.016 1.088h-14.848q-1.184 0-2.016-1.056t-0.864-2.528v-16.992h-1.696q-0.256 0-0.416-0.16t-0.16-0.416v-1.152q0-0.256 0.16-0.416t0.416-0.16h5.504l1.248-2.976q0.288-0.672 0.992-1.12t1.408-0.48h5.696q0.736 0 1.408 0.48t0.96 1.12l1.248 2.976h5.536q0.256 0 0.416 0.16t0.16 0.416z"></path>
</symbol>
<symbol id="icon-plus" viewBox="0 0 30 32">
<path d="M29.152 12.416v7.136h-10.72v10.752h-7.136v-10.752h-10.72v-7.136h10.72v-10.72h7.136v10.72h10.72z"></path>
</symbol>
<symbol id="icon-check-empty" viewBox="0 0 25 32">
<path d="M20 4.576h-14.848q-1.184 0-2.016 0.832t-0.864 2.016v14.848q0 1.184 0.864 2.016t2.016 0.864h14.848q1.184 0 2.016-0.864t0.832-2.016v-14.848q0-1.184-0.832-2.016t-2.016-0.832zM25.152 7.424v14.848q0 2.144-1.504 3.648t-3.648 1.504h-14.848q-2.144 0-3.648-1.504t-1.504-3.648v-14.848q0-2.112 1.504-3.616t3.648-1.536h14.848q2.112 0 3.648 1.536t1.504 3.616z"></path>
</symbol>
</defs>
</svg>
